<svg xmlns="http://www.w3.org/2000/svg" xmlns:xlink="http://www.w3.org/1999/xlink" id="Layer_1" x="0px" y="0px" viewBox="0 0 64 64" style="enable-background:new 0 0 64 64;" xml:space="preserve"><style type="text/css">	.st0{fill:#FFFFFF;}</style><path class="st0" d="M31,2C15,2,2,15,2,31s13,29,29,29s29-13,29-29S47,2,31,2z M31,4c14.9,0,27,12.1,27,27S45.9,58,31,58 S4,45.9,4,31S16.1,4,31,4z M30.6,8c-5.9,0.1-11.6,2.5-15.8,6.7c-9,9-9,23.6,0,32.5c0.2,0.2,0.4,0.3,0.7,0.3c0.3,0,0.5-0.1,0.7-0.3 c0.4-0.4,0.4-1,0-1.4C8,37.7,8,24.3,16.2,16.2c4.7-4.8,11.5-6.9,18.2-5.9c0.5,0.1,1.1-0.3,1.1-0.8c0.1-0.5-0.3-1.1-0.8-1.1 C33.3,8.1,31.9,8,30.6,8z M38.7,9.4c-0.4,0-0.7,0.3-0.9,0.6c-0.2,0.5,0.1,1.1,0.6,1.3c0.7,0.3,1.4,0.6,2.1,0.9 c0.1,0.1,0.3,0.1,0.4,0.1c0.4,0,0.7-0.2,0.9-0.6c0.2-0.5,0.1-1.1-0.4-1.3c-0.8-0.4-1.5-0.7-2.3-1C38.9,9.4,38.8,9.4,38.7,9.4z  M44.4,12.7c-0.3,0-0.5,0.2-0.7,0.4c-0.3,0.4-0.3,1.1,0.2,1.4c0.7,0.5,1.3,1.1,1.9,1.7c8.2,8.2,8.2,21.5,0,29.7 c-0.4,0.4-0.4,1,0,1.4c0.2,0.2,0.5,0.3,0.7,0.3c0.3,0,0.5-0.1,0.7-0.3c9-9,9-23.6,0-32.5c-0.7-0.7-1.4-1.3-2.1-1.9 C45,12.7,44.7,12.6,44.4,12.7z M31.1,20c-0.3,0-0.6,0.1-0.8,0.3l-4,4c-0.4,0.4-0.4,1,0,1.4s1,0.4,1.4,0l2.3-2.3V40h-2 c-0.6,0-1,0.4-1,1s0.4,1,1,1h6c0.6,0,1-0.4,1-1s-0.4-1-1-1h-2V21c0-0.4-0.2-0.8-0.6-0.9C31.3,20,31.2,20,31.1,20z M21.4,47.4 c-0.4,0-0.8,0.1-1,0.5l-1,1.7c-0.3,0.5-0.1,1.1,0.4,1.4c0.2,0.1,0.3,0.1,0.5,0.1c0.3,0,0.7-0.2,0.9-0.5l1-1.7 c0.3-0.5,0.1-1.1-0.4-1.4C21.6,47.5,21.5,47.4,21.4,47.4z M40.6,47.4c-0.1,0-0.3,0.1-0.4,0.1c-0.5,0.3-0.6,0.9-0.4,1.4l1,1.7 c0.2,0.3,0.5,0.5,0.9,0.5c0.2,0,0.3,0,0.5-0.1c0.5-0.3,0.6-0.9,0.4-1.4l-1-1.7C41.4,47.5,41,47.3,40.6,47.4z M25.8,49.3 c-0.4,0.1-0.7,0.3-0.8,0.7L24.5,52c-0.1,0.5,0.2,1.1,0.7,1.2c0.1,0,0.2,0,0.3,0c0.4,0,0.8-0.3,1-0.7l0.5-1.9 c0.1-0.5-0.2-1.1-0.7-1.2C26.1,49.3,25.9,49.3,25.8,49.3z M36.2,49.3c-0.1,0-0.3,0-0.4,0c-0.5,0.1-0.8,0.7-0.7,1.2l0.5,1.9 c0.1,0.4,0.5,0.7,1,0.7c0.1,0,0.2,0,0.3,0c0.5-0.1,0.8-0.7,0.7-1.2L37,50.1C36.9,49.7,36.6,49.4,36.2,49.3z M31,50c-0.6,0-1,0.4-1,1 v2c0,0.6,0.4,1,1,1s1-0.4,1-1v-2C32,50.4,31.6,50,31,50z"></path></svg>