<svg xmlns="http://www.w3.org/2000/svg" xmlns:xlink="http://www.w3.org/1999/xlink" id="Layer_1" x="0px" y="0px" viewBox="0 0 64 64" style="enable-background:new 0 0 64 64;" xml:space="preserve"><style type="text/css">	.st0{fill:#FFFFFF;}</style><path class="st0" d="M9,6C7.3,6,6,7.3,6,9v46c0,1.7,1.3,3,3,3h46c1.7,0,3-1.3,3-3V9c0-1.7-1.3-3-3-3H9z M9,8h46c0.6,0,1,0.4,1,1v46 c0,0.6-0.4,1-1,1H9c-0.6,0-1-0.4-1-1V9C8,8.4,8.4,8,9,8z M15,12c-1.7,0-3,1.3-3,3v4.5c0,0.6,0.4,1,1,1s1-0.4,1-1V15c0-0.6,0.4-1,1-1 h34c0.6,0,1,0.4,1,1v20c0,0.6,0.4,1,1,1s1-0.4,1-1V15c0-1.7-1.3-3-3-3H15z M31,19c-3.3,0-6,2.7-6,6v1c0,0.6,0.4,1,1,1s1-0.4,1-1v-1 c0-2.2,1.8-4,4-4h2c2.2,0,4,1.8,4,4v3c0,2.5-2.9,4.9-5.6,7.2C28.2,37.8,25,40.5,25,44c0,0.6,0.4,1,1,1h12c0.6,0,1-0.4,1-1 s-0.4-1-1-1H27.1c0.6-2.2,3.1-4.2,5.5-6.2c3.1-2.6,6.4-5.3,6.4-8.8v-3c0-3.3-2.7-6-6-6H31z M12,23c-0.6,0-1,0.4-1,1s0.4,1,1,1h2 c0.6,0,1-0.4,1-1s-0.4-1-1-1H12z M12,28c-0.6,0-1,0.4-1,1s0.4,1,1,1h2c0.6,0,1-0.4,1-1s-0.4-1-1-1H12z M12,33c-0.6,0-1,0.4-1,1 s0.4,1,1,1h2c0.6,0,1-0.4,1-1s-0.4-1-1-1H12z M12,38c-0.6,0-1,0.4-1,1s0.4,1,1,1h2c0.6,0,1-0.4,1-1s-0.4-1-1-1H12z M51,38 c-0.6,0-1,0.4-1,1v4c0,0.6,0.4,1,1,1s1-0.4,1-1v-4C52,38.4,51.6,38,51,38z M13,44c-0.6,0-1,0.4-1,1v4c0,1.7,1.3,3,3,3h34 c1.7,0,3-1.3,3-3v-2c0-0.6-0.4-1-1-1s-1,0.4-1,1v2c0,0.6-0.4,1-1,1H15c-0.6,0-1-0.4-1-1v-4C14,44.4,13.6,44,13,44z"></path></svg>