<svg xmlns="http://www.w3.org/2000/svg" xmlns:xlink="http://www.w3.org/1999/xlink" id="Layer_1" x="0px" y="0px" viewBox="0 0 64 64" style="enable-background:new 0 0 64 64;" xml:space="preserve"><style type="text/css">	.st0{fill:#FFFFFF;}</style><path class="st0" d="M32,3C16,3,3,16,3,32s13,29,29,29s29-13,29-29S48,3,32,3z M32,5c14.9,0,27,12.1,27,27S46.9,59,32,59 S5,46.9,5,32S17.1,5,32,5z M31.6,9c-5.9,0.1-11.6,2.5-15.8,6.7c-9,9-9,23.6,0,32.5c0.2,0.2,0.5,0.3,0.7,0.3s0.5-0.1,0.7-0.3 c0.4-0.4,0.4-1,0-1.4C9,38.7,9,25.3,17.2,17.2c4.7-4.7,11.5-6.9,18.2-5.9c0.5,0.1,1.1-0.3,1.1-0.8c0.1-0.5-0.3-1.1-0.8-1.1 C34.3,9.1,32.9,9,31.6,9z M39.7,10.4c-0.4,0-0.8,0.3-0.9,0.6c-0.2,0.5,0.1,1.1,0.6,1.3c0.7,0.3,1.4,0.6,2.1,0.9 c0.1,0.1,0.3,0.1,0.4,0.1c0.4,0,0.7-0.2,0.9-0.6c0.2-0.5,0.1-1.1-0.4-1.3c-0.7-0.4-1.5-0.7-2.3-1C39.9,10.4,39.8,10.4,39.7,10.4z  M45.4,13.7c-0.3,0-0.5,0.2-0.7,0.4c-0.3,0.4-0.3,1.1,0.2,1.4c0.7,0.5,1.3,1.1,1.9,1.7c8.2,8.2,8.2,21.5,0,29.7 c-0.4,0.4-0.4,1,0,1.4c0.2,0.2,0.5,0.3,0.7,0.3s0.5-0.1,0.7-0.3c9-9,9-23.6,0-32.5c-0.7-0.7-1.4-1.3-2.1-1.9 C46,13.7,45.7,13.6,45.4,13.7z M30,21c-2.8,0-5,2.2-5,5c0,0.6,0.4,1,1,1s1-0.4,1-1c0-1.7,1.3-3,3-3h4c1.7,0,3,1.3,3,3v2 c0,1.7-1.3,3-3,3h-4c-0.6,0-1,0.4-1,1c0,0.6,0.4,1,1,1h4c1.7,0,3,1.3,3,3v2c0,1.7-1.3,3-3,3h-4c-1.7,0-3-1.3-3-3c0-0.6-0.4-1-1-1 s-1,0.4-1,1c0,2.8,2.2,5,5,5h4c2.8,0,5-2.2,5-5v-2c0-1.6-0.7-3.1-2-4c1.3-0.9,2-2.4,2-4v-2c0-2.8-2.2-5-5-5H30z M22.4,48.4 c-0.4,0-0.8,0.1-1,0.5l-1,1.7c-0.3,0.5-0.1,1.1,0.4,1.4c0.2,0.1,0.3,0.1,0.5,0.1c0.3,0,0.7-0.2,0.9-0.5l1-1.7 c0.3-0.5,0.1-1.1-0.4-1.4C22.6,48.5,22.5,48.4,22.4,48.4z M41.6,48.4c-0.1,0-0.3,0.1-0.4,0.1c-0.5,0.3-0.6,0.9-0.4,1.4l1,1.7 c0.2,0.3,0.5,0.5,0.9,0.5c0.2,0,0.3,0,0.5-0.1c0.5-0.3,0.6-0.9,0.4-1.4l-1-1.7C42.4,48.5,42,48.3,41.6,48.4z M26.8,50.3 c-0.4,0.1-0.7,0.3-0.8,0.7L25.5,53c-0.1,0.5,0.2,1.1,0.7,1.2c0.1,0,0.2,0,0.3,0c0.4,0,0.8-0.3,1-0.7l0.5-1.9 c0.1-0.5-0.2-1.1-0.7-1.2C27.1,50.3,26.9,50.3,26.8,50.3z M37.2,50.3c-0.1,0-0.3,0-0.4,0c-0.5,0.1-0.9,0.7-0.7,1.2l0.5,1.9 c0.1,0.4,0.5,0.7,1,0.7c0.1,0,0.2,0,0.3,0c0.5-0.1,0.9-0.7,0.7-1.2L38,51.1C37.9,50.7,37.6,50.4,37.2,50.3z M32,51c-0.6,0-1,0.4-1,1 v2c0,0.6,0.4,1,1,1c0.6,0,1-0.4,1-1v-2C33,51.4,32.6,51,32,51z"></path></svg>