<svg xmlns="http://www.w3.org/2000/svg" xmlns:xlink="http://www.w3.org/1999/xlink" id="Layer_1" x="0px" y="0px" viewBox="0 0 152.1 120" style="enable-background:new 0 0 152.1 120;" xml:space="preserve"><path d="M140.3,0c-16.5,0-32,10-43.6,19.8C92,23.8,88,27.7,84.8,31c-0.1-3.2-2-6-4.7-7.4c0,0,0,0,0,0l11-19.8c0.6-1.1,0.2-2.4-0.8-3 c-0.3-0.2-0.7-0.3-1.1-0.3c-0.8,0-1.5,0.4-1.9,1.2l-11,19.8c-0.2,0.3-0.3,0.7-0.3,1c0-0.4-0.1-0.7-0.3-1l-11-19.8 c-0.4-0.7-1.2-1.2-2-1.2c-1.2,0-2.2,1-2.2,2.3c0,0.4,0.1,0.7,0.3,1.1l11,19.8c0,0,0,0,0,0c-2.7,1.4-4.5,4.2-4.7,7.4 c-3.1-3.3-7.1-7.3-11.8-11.3C43.9,10,28.3,0,11.8,0C8,0,1.7,1.5,1.7,1.5C0.5,1.7-0.2,2.9,0.1,4.1c0,0,0,0,0,0c0,0,2.6,10.8,6.7,22.2 c2.1,5.7,4.6,11.5,7.4,16.3c2.2,3.7,4.5,6.8,7.4,8.6c0.4,0.5,1,0.8,1.6,0.9c0.4,0.2,0.7,0.3,1.1,0.4c1.1,0.3,2.4,0.8,3.8,1.3 c-6.3,3.2-12.6,7.9-15.2,15.1c-0.3,0.9,0,1.9,0.7,2.5c0,0,1.3,1.1,2,2.7c0.6,1.6,0.9,3.6-2.2,6.9c-0.8,0.9-0.8,2.3,0.1,3.1 c0.2,0.2,0.4,0.3,0.6,0.4c2,1,2.5,2.7,2.6,4.8c0.1,2.1-0.5,3.9-0.5,3.9c-0.4,1.2,0.3,2.4,1.4,2.8c0.1,0,0.2,0.1,0.3,0.1 c0,0,2,0.4,3.2,1.6c0.6,0.6,1,1.2,1.1,2.3c0.1,1.1-0.2,2.7-1.4,5c-0.1,0.2-0.2,0.4-0.2,0.6c-2.6,2.1-5.4,5.6-7.6,11.5 c-0.4,1.1,0.2,2.4,1.3,2.8c1.1,0.4,2.4-0.2,2.8-1.3c2.3-6.4,5.2-9.1,7.3-10.3c1.1-0.6,1.9-0.9,2.5-1c0.6-0.1,0.7-0.1,0.7-0.1 c0.1,0,0.1,0,0.2,0c2.2,0,3.2,0.6,3.7,1.1c0.6,0.5,0.6,0.7,0.6,0.7c0.4,1.1,1.7,1.7,2.8,1.3c0.5-0.2,0.9-0.5,1.1-0.9 c1.4-2.4,2.4-2.4,3.2-2.3c0.9,0.1,1.6,0.6,1.6,0.6c0.2,0.1,0.4,0.2,0.6,0.3c4.3,1.6,9.1,0.9,13-1.5s6.8-6.9,6.8-12.4 c0-9.9,2.3-14.5,4.8-16.8l5.2,38.3c0.3,2.3,2.3,4.1,4.7,4.1c2.3,0,4.4-1.8,4.7-4.1v0L86,77.1c2.6,2.3,4.8,6.9,4.8,16.8 c0,5.6,2.9,10,6.8,12.4c3.9,2.4,8.7,3.1,13,1.5c0.2-0.1,0.4-0.2,0.6-0.3c0,0,0.7-0.5,1.6-0.6c0.9-0.1,1.8-0.1,3.2,2.3 c0.6,1,2,1.4,3,0.8c0.4-0.3,0.8-0.7,0.9-1.1c0,0,0-0.2,0.6-0.7c0.6-0.5,1.6-1.1,3.7-1.1c0.1,0,0.1,0,0.2,0c0,0,0.1,0,0.7,0.1 c0.6,0.1,1.5,0.4,2.5,1c2.1,1.2,5,4,7.3,10.3c0.4,1.1,1.7,1.7,2.8,1.3s1.7-1.7,1.3-2.8c0,0,0,0,0,0c-2.2-5.9-5-9.4-7.6-11.5 c0-0.2-0.1-0.4-0.2-0.6c-1.3-2.3-1.5-4-1.4-5c0.1-1.1,0.5-1.7,1.1-2.3c1.2-1.2,3.2-1.6,3.2-1.6c1.2-0.2,2-1.3,1.8-2.5 c0-0.1,0-0.2-0.1-0.3c0,0-0.6-1.9-0.5-3.9c0.1-2.1,0.5-3.8,2.6-4.8c1.1-0.5,1.6-1.8,1-2.9c-0.1-0.2-0.2-0.4-0.4-0.6 c-3.1-3.2-2.8-5.2-2.2-6.9c0.6-1.6,2-2.7,2-2.7c0.8-0.6,1.1-1.6,0.7-2.5c-2.6-7.2-8.9-11.8-15.2-15c1.4-0.5,2.6-1,3.7-1.4 c0.4-0.1,0.7-0.3,1.1-0.4c0.6,0,1.3-0.3,1.6-0.9c2.9-1.8,5.2-5,7.4-8.6c2.8-4.8,5.3-10.6,7.4-16.3c4.2-11.4,6.7-22.2,6.7-22.2 c0.3-1.2-0.5-2.4-1.6-2.7c0,0,0,0,0,0C150.4,1.5,144.1,0,140.3,0z M140.3,4.4c1.9,0,4.8,0.6,6.8,1c-0.5,1.9-2.2,9.5-5.9,19.4 c-2,5.5-4.5,11.2-7.1,15.5c-1.7,2.8-3.4,4.9-5,6.4c-3.2-4.5-2.8-7-2-8.7c0.9-1.8,2.8-2.7,2.8-2.7c0.8-0.4,1.4-1.2,1.3-2.1 c0,0-0.1-1.9,0.5-3.9s1.5-3.6,3.7-4c1.2-0.2,2-1.4,1.7-2.6c0-0.2-0.1-0.5-0.2-0.7c-2.2-3.9-1.4-5.8-0.4-7.2c1-1.4,2.6-2.1,2.6-2.1 c0.9-0.4,1.4-1.3,1.3-2.2c-0.2-2-0.7-4-1.5-5.9C139.4,4.4,139.8,4.4,140.3,4.4z M11.8,4.4c0.4,0,0.9,0,1.3,0.1 c-0.7,1.9-1.3,3.9-1.5,5.9c-0.1,1,0.4,1.9,1.3,2.2c0,0,1.5,0.7,2.6,2.1s1.8,3.3-0.4,7.2C14.6,23,15,24.4,16,25 c0.2,0.1,0.4,0.2,0.7,0.2c2.2,0.4,3.1,2,3.7,4s0.5,3.9,0.5,3.9c0,0.9,0.5,1.8,1.3,2.1c0,0,1.9,0.9,2.8,2.7c0.8,1.6,1.2,4.1-2,8.7 c-1.6-1.4-3.4-3.6-5-6.4c-2.6-4.4-5-10-7.1-15.5C7.3,14.9,5.5,7.3,5.1,5.4C7.1,5,9.9,4.4,11.8,4.4z M134.3,4.9 c0.7,1.5,1,3.1,1.3,4.7c-0.4,0.3-0.8,0.6-1.3,1l-1.1-1.2l-0.8-0.1l-1.8,0.9l-0.3,1.9l1.4,1.4l0.5,0.1c-0.9,2.2-0.9,5.1,0.4,8.4 c-2.6,1.4-4.4,3.7-5,5.9c-0.6,2-0.5,3-0.5,3.9c-1.1,0.6-2.6,1.7-3.8,4.1c-1.5,3-1.5,7.4,2,12.7c-2.5,0.9-4.8,1.9-7.3,1.9 c-1.2,0-2.2,1-2.1,2.3c0,0,0,0.1,0,0.1c0,0,0,0,0,0c0,0.1,0,0.1,0,0.2c0,0.5,0.1,1,0.4,1.5c0.1,0.1,0.2,0.2,0.3,0.3 c0.1,0.1,0.2,0.2,0.3,0.3c3.7,2.4,6.3,5.4,7.9,9.1c-0.7,0.8-1.5,1.8-2,3.2c-1,2.5-0.4,6.1,2.1,9.7c-2.2,2-3.3,4.7-3.4,7 c-0.1,2.1,0.3,3.1,0.5,3.9c-0.9,0.9-2.3,2.5-2.8,5.3c-0.5,2.7,0.3,6,3.3,9.4c-2.1,0.3-3.7,1.1-4.7,2c0,0,0,0-0.1,0.1 c-1.8-1.6-3.7-2.5-5.3-2.3c-1.8,0.2-2.9,0.9-3.4,1.2c-2.8,1-6.3,0.5-9-1.2c-2.7-1.7-4.7-4.6-4.7-8.7c0-12.7-3.9-19-8.6-21.7l0.4-3.3 v-0.2c0-4.4-2.6-8.1-6.3-9.9c3.7-1.8,6.3-5.5,6.3-9.9c0-3.6-1.8-6.8-4.5-8.8c2.7-3.2,8.8-10.1,17-17C109.2,15,121.7,6.9,134.3,4.9z  M17.8,4.9c12.7,2,25.1,10.1,34.8,18.2c8.2,7,14.3,13.8,17,17c-2.7,2-4.5,5.2-4.5,8.8c0,4.4,2.6,8.1,6.3,9.9 c-3.7,1.8-6.3,5.5-6.3,9.9V69l0.4,3.3c-4.7,2.7-8.6,9-8.6,21.7c0,4.1-2,7-4.7,8.7c-2.7,1.7-6.2,2.2-9,1.2c-0.5-0.3-1.6-1-3.4-1.2 c-1.6-0.2-3.6,0.8-5.3,2.3c0,0,0,0-0.1-0.1c-1-0.9-2.6-1.6-4.7-2c2.9-3.4,3.7-6.7,3.3-9.4c-0.5-2.8-1.9-4.4-2.8-5.3 c0.2-0.9,0.6-1.8,0.5-3.9c-0.1-2.3-1.2-5-3.4-7c2.5-3.6,3.1-7.2,2.1-9.7c-0.5-1.4-1.3-2.4-2-3.2c1.7-3.8,4.3-6.8,8-9.2 c0.3-0.2,0.6-0.5,0.7-0.8c0,0,0,0,0,0c0-0.1,0.1-0.1,0.1-0.2c0,0,0,0,0,0c0-0.1,0-0.1,0.1-0.2c0,0,0,0,0,0c0-0.1,0-0.1,0-0.2 c0,0,0,0,0,0c0,0,0,0,0,0c0-0.2,0-0.4,0-0.6c0,0,0-0.1,0-0.1c0.1-1.2-0.8-2.3-2.1-2.3c0,0,0,0,0,0c-2.3-0.1-4.8-1.1-7.3-2 c3.5-5.3,3.5-9.7,2-12.7c-1.2-2.4-2.8-3.5-3.8-4.1c0-0.9,0.1-1.9-0.5-3.9c-0.6-2.2-2.4-4.5-5-5.9c1.5-4.1,1.2-7.7-0.4-9.9 C19.1,12.1,19,12,19,11.9l0.2-1.3l-1.3-1.4L17.1,9l-0.6,0.3C16.8,7.8,17.2,6.4,17.8,4.9z M25.5,11.6l-1.8,0.9l-0.3,1.9l1.4,1.4 l0.8,0.1l1.8-0.9l0.3-1.9l-1.3-1.4L25.5,11.6z M124.1,12.2l-1.8,0.9L122,15l1.4,1.4l0.8,0.1l1.8-0.9l0.3-1.9l-1.3-1.4L124.1,12.2z  M33.3,15.6l-1.8,0.9l-0.3,1.9l1.3,1.4l0.8,0.1l1.8-0.9l0.3-1.9l-1.3-1.4L33.3,15.6z M116.4,16.4l-1.8,0.9l-0.3,1.9l1.3,1.4l0.8,0.1 l1.8-0.9l0.3-1.9l-1.3-1.4L116.4,16.4z M40.8,20.4L39,21.3l-0.3,1.9l1.4,1.4l0.8,0.1l1.8-0.9l0.3-1.9l-1.3-1.4L40.8,20.4z M109,21.2 l-1.8,0.9l-0.3,1.9l1.4,1.4l0.8,0.1l1.8-0.9l0.3-1.9l-1.3-1.4L109,21.2z M47.8,25.7l-1.8,0.9l-0.3,1.9l1.3,1.4l0.8,0.1l1.8-0.9 l0.3-1.9l-1.3-1.4L47.8,25.7z M102,26.6l-1.8,0.9l-0.3,1.9l1.3,1.4L102,31l1.8-0.9l0.3-1.9l-1.3-1.4L102,26.6z M76.1,27 c2.5,0,4.4,1.9,4.4,4.4s-1.9,4.4-4.4,4.4s-4.4-1.9-4.4-4.4S73.6,27,76.1,27z M54.6,31.3l-1.8,0.9l-0.3,1.9l1.3,1.4l0.8,0.1l1.8-0.9 l0.3-1.9l-1.3-1.4L54.6,31.3z M95.3,32.3l-1.8,0.9l-0.3,1.9l1.3,1.4l0.8,0.1l1.8-0.9l0.3-1.9l-1.3-1.4L95.3,32.3z M76.1,42.4 c3.7,0,6.6,2.9,6.6,6.6s-2.9,6.6-6.6,6.6c-3.7,0-6.6-2.9-6.6-6.6c0-2.7,1.6-5,3.9-6c0.2,0,0.5-0.1,0.7-0.2 C74.6,42.5,75.3,42.4,76.1,42.4z M93.7,47.2l-1.8,0.9L91.6,50l1.3,1.4l0.8,0.1l1.8-0.9l0.3-1.9l-1.4-1.4L93.7,47.2z M60.3,47.4 l-1.8,0.9l-0.3,1.9l1.3,1.4l0.8,0.1l1.8-0.9l0.3-1.9l-1.4-1.4L60.3,47.4z M102.5,47.9l-1.8,0.9l-0.3,1.9l1.3,1.4l0.8,0.1l1.8-0.9 l0.3-1.9l-1.4-1.4L102.5,47.9z M51.6,48.8l-1.8,0.9l-0.3,1.9l1.3,1.4l0.8,0.1l1.8-0.9l0.3-1.9l-1.3-1.4L51.6,48.8z M111.2,48.8 l-1.8,0.9l-0.3,1.9l1.3,1.4l0.8,0.1l1.8-0.9l0.3-1.9l-1.4-1.4L111.2,48.8z M42.9,50.2l-1.8,0.9L40.8,53l1.3,1.4l0.8,0.1l1.8-0.9 l0.3-1.9l-1.3-1.4L42.9,50.2z M76.1,62.2c3.7,0,6.6,2.9,6.6,6.6l-6.3,46.1c0,0.2-0.1,0.3-0.3,0.3c-0.2,0-0.3-0.1-0.3-0.3l-6.3-46.1 C69.5,65.2,72.4,62.2,76.1,62.2z M23.3,62.3c-0.3,0.6-0.5,1.2-0.7,1.8c-0.3,0.9,0,1.9,0.7,2.5c0,0,1.3,1.1,2,2.7 c0.6,1.6,0.9,3.6-2.2,6.9c-0.8,0.9-0.8,2.3,0.1,3.1c0.2,0.2,0.4,0.3,0.6,0.4c2,1,2.5,2.7,2.6,4.8c0.1,2.1-0.5,3.9-0.5,3.9 c-0.3,0.9,0,1.8,0.7,2.4c0,0,1.7,1.4,2.1,3.5c0.2,1.4,0,3.3-2,5.7c0-0.1,0-0.3,0-0.5c-0.2-2.2-1.3-3.9-2.5-5.1 c-1.2-1.1-2.4-1.7-3.5-2.1c0.2-1,0.5-1.4,0.4-3.1c-0.1-2.3-1.2-5-3.4-7c2.5-3.6,3.1-7.2,2.1-9.7c-0.5-1.4-1.3-2.4-2-3.2 C19,66.6,21,64.3,23.3,62.3z M128.8,62.3c2.4,2,4.4,4.3,5.6,7c-0.7,0.8-1.5,1.8-2,3.2c-1,2.5-0.4,6.1,2.1,9.7c-2.2,2-3.3,4.7-3.4,7 c0,1.7,0.2,2.1,0.4,3.1c-1.1,0.4-2.3,1-3.5,2.1c-1.2,1.2-2.3,2.9-2.5,5.1c0,0.1,0,0.3,0,0.5c-2.1-2.4-2.3-4.3-2-5.7 c0.4-2.1,2.1-3.5,2.1-3.5c0.7-0.6,1-1.5,0.7-2.4c0,0-0.6-1.9-0.5-3.9c0.1-2.1,0.5-3.8,2.6-4.8c1.1-0.5,1.6-1.8,1-2.9 c-0.1-0.2-0.2-0.4-0.4-0.6c-3.1-3.2-2.8-5.2-2.2-6.9c0.6-1.6,2-2.7,2-2.7c0.8-0.6,1.1-1.6,0.7-2.5C129.3,63.4,129,62.8,128.8,62.3z  M45.8,86.7c-3.3,0-6.1,2.7-6.1,6.1c0,0,0,0,0,0c0,3.3,2.7,6.1,6.1,6.1c0,0,0,0,0,0c3.3,0,6.1-2.7,6.1-6.1c0,0,0,0,0,0 C51.8,89.4,49.1,86.7,45.8,86.7C45.8,86.7,45.8,86.7,45.8,86.7z M106.3,86.7c-3.3,0-6.1,2.7-6.1,6.1c0,0,0,0,0,0 c0,3.3,2.7,6.1,6.1,6.1c0,0,0,0,0,0c3.3,0,6.1-2.7,6.1-6.1c0,0,0,0,0,0C112.4,89.4,109.7,86.7,106.3,86.7 C106.3,86.7,106.3,86.7,106.3,86.7z"></path></svg>