<svg xmlns="http://www.w3.org/2000/svg" fill="#000000" viewBox="0 0 80 80" width="80px" height="80px"><path d="M 69.130859 12.769531 C 61.663902 12.769531 54.596281 17.303858 49.355469 21.746094 C 47.224552 23.552309 45.411365 25.341181 43.984375 26.849609 C 43.928518 25.395663 43.08728 24.144233 41.873047 23.490234 A 1.0010694 1.0010694 0 0 0 41.875 23.486328 L 46.875 14.486328 A 1.0001 1.0001 0 0 0 45.998047 12.988281 A 1.0001 1.0001 0 0 0 45.125 13.513672 L 40.125 22.513672 A 1.0010694 1.0010694 0 0 0 39.998047 22.978516 A 1.0010694 1.0010694 0 0 0 39.875 22.513672 L 34.875 13.513672 A 1.0001 1.0001 0 0 0 33.970703 12.988281 A 1.0001 1.0001 0 0 0 33.125 14.486328 L 38.125 23.486328 A 1.0010694 1.0010694 0 0 0 38.126953 23.490234 C 36.911625 24.144823 36.070109 25.397915 36.015625 26.853516 C 34.588354 25.344667 32.774476 23.555094 30.642578 21.748047 C 25.401766 17.305811 18.336098 12.771484 10.869141 12.771484 C 9.1236473 12.771484 6.2871094 13.427734 6.2871094 13.427734 A 1.0001 1.0001 0 0 0 5.5253906 14.634766 C 5.5253906 14.634766 6.6871438 19.543684 8.5800781 24.695312 C 9.5265453 27.271127 10.652608 29.911446 11.943359 32.072266 C 12.93525 33.732768 14.002997 35.150078 15.300781 35.984375 A 1.0001 1.0001 0 0 0 16.046875 36.378906 C 16.208751 36.44938 16.369821 36.522049 16.539062 36.574219 C 17.052488 36.732471 17.646866 36.959581 18.267578 37.169922 C 15.400377 38.640186 12.559759 40.736134 11.363281 44.013672 A 1.0001 1.0001 0 0 0 11.689453 45.148438 C 11.689453 45.148438 12.287588 45.63286 12.576172 46.378906 C 12.864756 47.124953 12.988343 48.028621 11.582031 49.488281 A 1.0001 1.0001 0 0 0 11.871094 51.085938 C 12.796413 51.527456 13.005986 52.331148 13.03125 53.267578 C 13.05651 54.204008 12.804685 55.044922 12.804688 55.044922 A 1.0001 1.0001 0 0 0 13.589844 56.328125 C 13.589844 56.328125 14.498852 56.524921 15.054688 57.052734 C 15.332604 57.316641 15.520479 57.610337 15.566406 58.097656 C 15.612336 58.584975 15.493336 59.321453 14.914062 60.384766 A 1.0001 1.0001 0 0 0 14.810547 60.650391 C 13.61188 61.591003 12.341828 63.189067 11.363281 65.859375 A 1.0007044 1.0007044 0 1 0 13.242188 66.548828 C 14.304292 63.650498 15.607323 62.417475 16.564453 61.855469 C 17.043018 61.574466 17.444242 61.45897 17.712891 61.410156 C 17.981539 61.361346 18.044922 61.375 18.044922 61.375 A 1.0001 1.0001 0 0 0 18.128906 61.378906 C 19.107224 61.378906 19.567665 61.651672 19.828125 61.871094 C 20.088585 62.090516 20.105469 62.185547 20.105469 62.185547 A 1.0001 1.0001 0 0 0 21.902344 62.34375 C 22.547354 61.2521 22.97417 61.262243 23.373047 61.300781 C 23.771924 61.339321 24.103516 61.570313 24.103516 61.570312 A 1.0001 1.0001 0 0 0 24.365234 61.716797 C 26.296111 62.432293 28.495942 62.127123 30.25 61.015625 C 32.004058 59.904127 33.3125 57.906786 33.3125 55.376953 C 33.3125 50.890935 34.345421 48.800657 35.503906 47.767578 L 37.875 65.144531 C 38.019012 66.200055 38.93546 67 40 67 C 41.06454 67 41.980988 66.200056 42.125 65.144531 L 42.125 65.142578 L 44.496094 47.767578 C 45.655956 48.80125 46.6875 50.89283 46.6875 55.378906 C 46.6875 57.90874 47.995956 59.904282 49.75 61.015625 C 51.504044 62.126968 53.703992 62.433606 55.634766 61.71875 A 1.0001 1.0001 0 0 0 55.898438 61.572266 C 55.898438 61.572266 56.228205 61.34133 56.626953 61.302734 C 57.025701 61.264134 57.452591 61.251594 58.097656 62.34375 A 1.0001 1.0001 0 0 0 59.894531 62.1875 C 59.894531 62.1875 59.911411 62.09247 60.171875 61.873047 C 60.432335 61.653625 60.892776 61.378906 61.871094 61.378906 A 1.0001 1.0001 0 0 0 61.955078 61.375 C 61.955078 61.375 62.018458 61.363299 62.287109 61.412109 C 62.555758 61.460919 62.956982 61.574466 63.435547 61.855469 C 64.392677 62.417475 65.695708 63.650498 66.757812 66.548828 A 1.0003684 1.0003684 0 1 0 68.636719 65.861328 C 67.656105 63.185379 66.382534 61.584757 65.181641 60.644531 A 1.0007266 1.0007266 0 0 0 65.085938 60.386719 C 64.506437 59.323402 64.38575 58.586865 64.431641 58.099609 C 64.477531 57.612353 64.667352 57.318595 64.945312 57.054688 C 65.501233 56.526873 66.408203 56.328125 66.408203 56.328125 A 1.0001 1.0001 0 0 0 67.195312 55.044922 C 67.195312 55.044922 66.941533 54.204008 66.966797 53.267578 C 66.992057 52.331148 67.201634 51.527455 68.126953 51.085938 A 1.0001 1.0001 0 0 0 68.417969 49.490234 C 67.011657 48.030574 67.135244 47.126906 67.423828 46.380859 C 67.712412 45.634813 68.308594 45.148437 68.308594 45.148438 A 1.0001 1.0001 0 0 0 68.636719 44.015625 C 67.445446 40.749063 64.620296 38.658423 61.763672 37.189453 C 62.380206 36.969422 62.955486 36.727404 63.457031 36.574219 C 63.627836 36.52208 63.789826 36.449701 63.953125 36.378906 A 1.0001 1.0001 0 0 0 64.699219 35.986328 C 65.997716 35.154249 67.064891 33.737538 68.056641 32.078125 C 69.347753 29.917811 70.475643 27.276098 71.421875 24.699219 C 73.31434 19.545461 74.472656 14.634766 74.472656 14.634766 A 1.0001 1.0001 0 0 0 73.712891 13.427734 C 73.712891 13.427734 70.877152 12.769531 69.130859 12.769531 z M 69.130859 14.769531 C 69.994199 14.769531 71.299608 15.048756 72.208984 15.222656 C 71.995997 16.0941 71.188353 19.528882 69.542969 24.009766 C 68.622076 26.517637 67.524012 29.071361 66.339844 31.052734 C 65.590316 32.306858 64.791433 33.297887 64.058594 33.933594 C 62.609851 31.883324 62.794768 30.742557 63.167969 30.003906 C 63.587134 29.174279 64.441406 28.771484 64.441406 28.771484 A 1.0001 1.0001 0 0 0 65.041016 27.804688 C 65.041016 27.804688 65.005746 26.92786 65.263672 26.027344 C 65.521598 25.126827 65.925511 24.400331 66.931641 24.203125 A 1.0001 1.0001 0 0 0 67.609375 22.730469 C 66.610991 20.965913 66.958452 20.121082 67.423828 19.470703 C 67.889204 18.820325 68.587891 18.498047 68.587891 18.498047 A 1.0001 1.0001 0 0 0 69.1875 17.482422 C 69.096362 16.560647 68.856319 15.659182 68.519531 14.792969 C 68.723347 14.785181 68.927237 14.769531 69.130859 14.769531 z M 10.869141 14.771484 C 11.072113 14.771484 11.275354 14.787183 11.478516 14.794922 C 11.142269 15.65972 10.902793 16.561112 10.8125 17.482422 A 1.0001 1.0001 0 0 0 11.412109 18.498047 C 11.412109 18.498047 12.110866 18.818345 12.576172 19.46875 C 13.041478 20.119155 13.386616 20.965918 12.388672 22.730469 A 1.0001 1.0001 0 0 0 13.068359 24.203125 C 14.075106 24.400384 14.478531 25.126917 14.736328 26.027344 C 14.994125 26.927771 14.958984 27.804688 14.958984 27.804688 A 1.0001 1.0001 0 0 0 15.558594 28.771484 C 15.558594 28.771484 16.412819 29.1741 16.832031 30.003906 C 17.205083 30.742342 17.389681 31.883647 15.943359 33.931641 C 15.209948 33.293973 14.409701 32.301672 13.660156 31.046875 C 12.476001 29.064507 11.378189 26.510842 10.457031 24.003906 C 8.8116153 19.525898 8.0045883 16.096981 7.7910156 15.224609 C 8.7011532 15.050636 10.007086 14.771484 10.869141 14.771484 z M 66.429688 14.996094 C 66.727581 15.697138 66.9027 16.414631 67.029297 17.125 C 66.845515 17.252753 66.644054 17.40855 66.441406 17.591797 L 65.927734 17.042969 L 65.580078 16.980469 L 64.779297 17.380859 L 64.621094 18.263672 L 65.234375 18.917969 L 65.457031 18.958984 C 65.06676 19.946285 65.062367 21.294254 65.621094 22.783203 C 64.432728 23.42921 63.629107 24.473457 63.341797 25.476562 C 63.075798 26.405264 63.125056 26.847145 63.125 27.248047 C 62.636798 27.531634 61.923803 28.030816 61.382812 29.101562 C 60.701755 30.449538 60.706012 32.455249 62.285156 34.869141 C 61.133836 35.272999 60.120097 35.722436 58.976562 35.75 A 1.0002747 1.0002747 0 0 0 58.003906 36.814453 A 1.0001 1.0001 0 0 0 58 36.828125 A 1.0001 1.0001 0 0 0 57.988281 36.927734 A 1.0001 1.0001 0 0 0 58.181641 37.585938 A 1.0001 1.0001 0 0 0 58.316406 37.734375 A 1.0001 1.0001 0 0 0 58.472656 37.853516 C 60.13869 38.945503 61.314805 40.299831 62.070312 41.998047 C 61.763925 42.352112 61.410035 42.830098 61.166016 43.460938 C 60.727523 44.594529 60.979917 46.226005 62.111328 47.841797 C 61.121932 48.763461 60.602354 49.974724 60.574219 51.017578 C 60.548089 51.98592 60.70689 52.404133 60.806641 52.791016 C 60.387249 53.201203 59.774873 53.911581 59.548828 55.185547 C 59.331827 56.408543 59.701415 57.901419 61.025391 59.457031 C 60.076156 59.595923 59.353871 59.944959 58.882812 60.341797 C 58.865162 60.356667 58.874512 60.35994 58.857422 60.375 C 58.050214 59.660933 57.174708 59.239003 56.435547 59.310547 C 55.620176 59.389468 55.118566 59.699919 54.888672 59.857422 C 53.621759 60.306324 52.048182 60.104136 50.820312 59.326172 C 49.576358 58.538015 48.6875 57.242073 48.6875 55.378906 C 48.6875 49.630983 46.904979 46.759108 44.798828 45.544922 L 45 44.068359 L 45 44 C 45 42.016103 43.820146 40.306338 42.134766 39.5 C 43.820151 38.693677 45 36.983943 45 35 C 45 33.358364 44.187703 31.909398 42.955078 30.998047 C 44.173867 29.544239 46.927998 26.425016 50.648438 23.271484 C 55.030881 19.556822 60.686716 15.915855 66.429688 14.996094 z M 13.568359 14.998047 C 19.311476 15.917393 24.966764 19.558434 29.349609 23.273438 C 33.070048 26.426968 35.825573 29.544799 37.044922 30.998047 C 35.812297 31.909398 35 33.358364 35 35 C 35 36.983943 36.179849 38.693677 37.865234 39.5 C 36.179854 40.306338 35 42.016103 35 44 L 35 44.068359 L 35.201172 45.542969 C 33.091506 46.756785 31.3125 49.62918 31.3125 55.376953 C 31.3125 57.24012 30.42363 58.53792 29.179688 59.326172 C 27.952398 60.103871 26.379797 60.305851 25.113281 59.857422 C 24.886531 59.701711 24.383676 59.389698 23.564453 59.310547 C 22.824944 59.239097 21.948133 59.660179 21.140625 60.375 C 21.124025 60.36036 21.134328 60.356247 21.117188 60.341797 C 20.646102 59.944936 19.92553 59.594442 18.976562 59.455078 C 20.299415 57.900398 20.668165 56.407986 20.451172 55.185547 C 20.225232 53.912705 19.611081 53.203721 19.191406 52.792969 C 19.291076 52.406727 19.449984 51.987069 19.423828 51.017578 C 19.395688 49.97457 18.876457 48.763479 17.886719 47.841797 C 19.018539 46.225809 19.272531 44.594667 18.833984 43.460938 C 18.590339 42.831065 18.235755 42.353976 17.929688 42 C 18.689148 40.293467 19.868879 38.93264 21.546875 37.837891 A 1.0001 1.0001 0 0 0 21.886719 37.478516 A 1.0001 1.0001 0 0 0 21.896484 37.460938 A 1.0001 1.0001 0 0 0 21.931641 37.388672 A 1.0001 1.0001 0 0 0 21.939453 37.371094 A 1.0001 1.0001 0 0 0 21.966797 37.294922 A 1.0001 1.0001 0 0 0 21.972656 37.277344 A 1.0001 1.0001 0 0 0 21.992188 37.199219 A 1.0001 1.0001 0 0 0 21.996094 37.179688 A 1.0001 1.0001 0 0 0 21.998047 37.158203 A 1.0001 1.0001 0 0 0 22.005859 36.880859 A 1.0001 1.0001 0 0 0 21.996094 36.818359 A 1.0004663 1.0004663 0 0 0 21.052734 35.751953 C 20.020519 35.69574 18.889026 35.255772 17.71875 34.861328 C 19.292877 32.451099 19.297481 30.448167 18.617188 29.101562 C 18.076228 28.030766 17.363169 27.531718 16.875 27.248047 C 16.875036 26.847125 16.92411 26.405328 16.658203 25.476562 C 16.370988 24.473387 15.567509 23.429208 14.378906 22.783203 C 15.07163 20.93628 14.910255 19.295069 14.203125 18.306641 C 14.170864 18.261547 14.136632 18.224371 14.103516 18.181641 L 14.210938 17.578125 L 13.599609 16.923828 L 13.251953 16.861328 L 13.001953 16.986328 C 13.125149 16.322408 13.29029 15.653062 13.568359 14.998047 z M 17.066406 18.025391 L 16.265625 18.427734 L 16.107422 19.310547 L 16.720703 19.964844 L 17.066406 20.025391 L 17.869141 19.625 L 18.025391 18.742188 L 17.414062 18.087891 L 17.066406 18.025391 z M 61.8125 18.298828 L 61.011719 18.701172 L 60.853516 19.583984 L 61.466797 20.238281 L 61.8125 20.298828 L 62.615234 19.898438 L 62.771484 19.015625 L 62.160156 18.361328 L 61.8125 18.298828 z M 20.626953 19.84375 L 19.826172 20.246094 L 19.667969 21.126953 L 20.279297 21.78125 L 20.626953 21.84375 L 21.427734 21.443359 L 21.585938 20.560547 L 20.974609 19.90625 L 20.626953 19.84375 z M 58.289062 20.1875 L 57.488281 20.587891 L 57.330078 21.470703 L 57.941406 22.125 L 58.289062 22.1875 L 59.089844 21.785156 L 59.248047 20.904297 L 58.636719 20.248047 L 58.289062 20.1875 z M 23.986328 22.011719 L 23.185547 22.414062 L 23.027344 23.294922 L 23.640625 23.949219 L 23.986328 24.011719 L 24.787109 23.611328 L 24.945312 22.728516 L 24.333984 22.074219 L 23.986328 22.011719 z M 54.960938 22.404297 L 54.160156 22.806641 L 54.001953 23.6875 L 54.615234 24.34375 L 54.960938 24.404297 L 55.761719 24.003906 L 55.919922 23.121094 L 55.308594 22.466797 L 54.960938 22.404297 z M 27.189453 24.40625 L 26.388672 24.808594 L 26.230469 25.689453 L 26.841797 26.34375 L 27.189453 26.40625 L 27.990234 26.005859 L 28.148438 25.123047 L 27.537109 24.46875 L 27.189453 24.40625 z M 51.783203 24.832031 L 50.982422 25.232422 L 50.824219 26.115234 L 51.435547 26.769531 L 51.783203 26.832031 L 52.583984 26.429688 L 52.742188 25.548828 L 52.130859 24.894531 L 51.783203 24.832031 z M 40 25 C 41.116414 25 42 25.883586 42 27 C 42 28.116414 41.116414 29 40 29 C 38.883586 29 38 28.116414 38 27 C 38 25.883586 38.883586 25 40 25 z M 30.25 26.980469 L 29.449219 27.382812 L 29.291016 28.263672 L 29.902344 28.917969 L 30.25 28.980469 L 31.050781 28.580078 L 31.208984 27.697266 L 30.597656 27.042969 L 30.25 26.980469 z M 48.75 27.4375 L 47.949219 27.839844 L 47.791016 28.720703 L 48.402344 29.375 L 48.75 29.4375 L 49.550781 29.037109 L 49.708984 28.154297 L 49.097656 27.5 L 48.75 27.4375 z M 40 32 C 41.668699 32 43 33.331301 43 35 C 43 36.668699 41.668699 38 40 38 C 38.331301 38 37 36.668699 37 35 C 37 33.777097 37.719006 32.740788 38.757812 32.271484 A 1.0001 1.0001 0 0 0 39.056641 32.164062 C 39.354667 32.066078 39.667264 32 40 32 z M 47.996094 34.169922 L 47.195312 34.572266 L 47.037109 35.453125 L 47.648438 36.107422 L 47.996094 36.169922 L 48.796875 35.769531 L 48.955078 34.886719 L 48.341797 34.232422 L 47.996094 34.169922 z M 32.871094 34.265625 L 32.070312 34.666016 L 31.912109 35.548828 L 32.523438 36.203125 L 32.871094 36.265625 L 33.671875 35.863281 L 33.830078 34.982422 L 33.216797 34.328125 L 32.871094 34.265625 z M 51.982422 34.501953 L 51.179688 34.902344 L 51.023438 35.785156 L 51.634766 36.439453 L 51.982422 36.501953 L 52.783203 36.099609 L 52.941406 35.21875 L 52.328125 34.564453 L 51.982422 34.501953 z M 28.921875 34.902344 L 28.121094 35.304688 L 27.962891 36.185547 L 28.574219 36.841797 L 28.921875 36.902344 L 29.722656 36.501953 L 29.880859 35.619141 L 29.269531 34.964844 L 28.921875 34.902344 z M 55.960938 34.912109 L 55.160156 35.3125 L 55.001953 36.195312 L 55.613281 36.849609 L 55.960938 36.912109 L 56.761719 36.509766 L 56.919922 35.628906 L 56.306641 34.974609 L 55.960938 34.912109 z M 24.972656 35.535156 L 24.171875 35.9375 L 24.013672 36.820312 L 24.625 37.474609 L 24.972656 37.535156 L 25.773438 37.134766 L 25.931641 36.251953 L 25.320312 35.597656 L 24.972656 35.535156 z M 40 41 C 41.662429 41 42.984525 42.324396 42.994141 43.984375 L 40.144531 64.875 C 40.133743 64.954581 40.080853 65 40 65 C 39.91915 65 39.866257 64.95458 39.855469 64.875 L 37.005859 43.984375 C 37.015475 42.324396 38.337571 41 40 41 z M 16.089844 41.019531 C 15.969951 41.278945 15.856036 41.543899 15.755859 41.818359 A 1.0001 1.0001 0 0 0 16.083984 42.951172 C 16.083984 42.951172 16.680166 43.437547 16.96875 44.183594 C 17.257334 44.92964 17.380921 45.833308 15.974609 47.292969 A 1.0001 1.0001 0 0 0 16.263672 48.888672 C 17.188991 49.330191 17.400517 50.133884 17.425781 51.070312 C 17.451041 52.006743 17.197266 52.847656 17.197266 52.847656 A 1.0001 1.0001 0 0 0 17.537109 53.935547 C 17.537109 53.935547 18.312489 54.577832 18.482422 55.535156 C 18.594076 56.164165 18.504311 57.01946 17.558594 58.117188 C 17.555634 58.049339 17.564865 57.976699 17.558594 57.910156 C 17.465114 56.918288 16.984348 56.128359 16.431641 55.603516 C 15.905487 55.103888 15.322216 54.818651 14.845703 54.634766 C 14.942603 54.188304 15.052178 53.988601 15.03125 53.212891 C 15.0031 52.169312 14.483191 50.958856 13.492188 50.037109 C 14.624181 48.421038 14.879975 46.791992 14.441406 45.658203 C 14.197748 45.028297 13.843189 44.549292 13.537109 44.195312 C 14.102782 42.977168 15.0098 41.930907 16.089844 41.019531 z M 63.912109 41.021484 C 64.992257 41.93302 65.899757 42.978798 66.464844 44.197266 C 66.15865 44.551277 65.802385 45.027953 65.558594 45.658203 C 65.120047 46.791933 65.374039 48.421121 66.505859 50.037109 C 65.515196 50.958839 64.994948 52.171419 64.966797 53.214844 C 64.945877 53.990119 65.055477 54.188271 65.152344 54.634766 C 64.675983 54.818695 64.094119 55.104337 63.568359 55.603516 C 63.01557 56.128358 62.534828 56.920178 62.441406 57.912109 C 62.435139 57.978657 62.444382 58.051289 62.441406 58.119141 C 61.494652 57.02043 61.405917 56.164471 61.517578 55.535156 C 61.68742 54.577946 62.460936 53.935547 62.460938 53.935547 A 1.0001 1.0001 0 0 0 62.800781 52.847656 C 62.800781 52.847656 62.548955 52.006743 62.574219 51.070312 C 62.599479 50.133882 62.809056 49.330191 63.734375 48.888672 A 1.0001 1.0001 0 0 0 64.023438 47.292969 C 62.617126 45.833308 62.742666 44.92964 63.03125 44.183594 C 63.319834 43.437547 63.916016 42.951172 63.916016 42.951172 A 1.0001 1.0001 0 0 0 64.244141 41.818359 C 64.144294 41.544462 64.031634 41.280386 63.912109 41.021484 z M 26.271484 52.082031 A 2.7460001 2.7460001 0 0 0 23.525391 54.828125 A 2.7460001 2.7460001 0 0 0 26.271484 57.574219 A 2.7460001 2.7460001 0 0 0 29.017578 54.828125 A 2.7460001 2.7460001 0 0 0 26.271484 52.082031 z M 53.728516 52.082031 A 2.7460001 2.7460001 0 0 0 50.982422 54.828125 A 2.7460001 2.7460001 0 0 0 53.728516 57.574219 A 2.7460001 2.7460001 0 0 0 56.474609 54.828125 A 2.7460001 2.7460001 0 0 0 53.728516 52.082031 z"></path></svg>